<?xml version="1.0" encoding="UTF-8" standalone="no"?>
<!DOCTYPE svg PUBLIC "-//W3C//DTD SVG 1.1//EN" "http://www.w3.org/Graphics/SVG/1.1/DTD/svg11.dtd">
<svg width="100%" height="100%" viewBox="0 0 1024 1024" version="1.1" xmlns="http://www.w3.org/2000/svg" xmlns:xlink="http://www.w3.org/1999/xlink" xml:space="preserve" xmlns:serif="http://www.serif.com/" style="fill-rule:evenodd;clip-rule:evenodd;stroke-linejoin:round;stroke-miterlimit:2;">
    <g>
        <path d="M1015.7,498.1L1015.7,541.4C1014.9,548.2 1014,555 1013.3,561.7C1004.4,644.7 977.8,721.5 930.6,790.4C849.7,908.6 739,982 597.7,1008C579.1,1011.4 560.2,1013.2 541.4,1015.8L482.4,1015.8C479.5,1015.2 476.7,1014.3 473.8,1014.1C418,1010.2 364.6,996.8 313.4,974.6C112.9,887.6 -15.6,677.1 12,452.8C18.6,399.4 32.9,348.1 55.3,299.3C96.8,209.2 158,135.2 240.3,79.3C289.2,46.1 342.5,22.2 400.4,9.2C411.9,6.6 422.2,9.1 430,17.8C434.5,22.8 437.4,29.3 440.5,35.5C471.2,96.4 542.4,146.6 621.7,118.7C641.7,111.7 658.2,123.7 661.5,144.7C663.1,155 664.8,165.4 667.3,175.5C684.3,243.6 745.7,296.8 815.7,303.2C831.6,304.7 847.7,303 863.7,302.9C881.8,302.8 895.5,315.7 895.8,333.1C896.9,398.2 930.5,441.8 987.2,469.2C1000.9,475.8 1012.5,482.2 1015.7,498.1ZM718.5,511.4C718.1,463 677.9,423.1 629.8,423.4C581.6,423.6 541.6,463.7 541.5,511.9C541.5,560.4 582.4,601.1 630.7,600.4C679.1,599.7 718.9,559.4 718.5,511.4ZM423.3,688.9C423.1,640.7 383.1,600.6 334.9,600.6C286.8,600.5 246.7,640.5 246.3,688.8C246,737.2 286.8,778 335.2,777.6C383.5,777.1 423.4,737 423.3,688.9ZM423.3,364.7C423.6,332.7 397,305.6 364.8,305.3C332.8,305 305.7,331.6 305.4,363.8C305.1,395.9 331.7,422.9 363.9,423.2C395.9,423.5 423,397 423.3,364.7ZM659.4,777.3C659.2,745.1 632.3,718.4 600.2,718.6C568,718.8 541.3,745.8 541.5,777.8C541.7,810 568.6,836.7 600.7,836.5C632.9,836.4 659.6,809.4 659.4,777.3ZM244.5,513.9C244.4,497.6 231.1,484.4 215,484.6C199.1,484.8 185.5,498.5 185.7,514.4C185.9,530.5 199.3,543.6 215.5,543.5C231.8,543.3 244.6,530.3 244.5,513.9ZM834.9,632.6C835.1,616.3 822.2,602.9 806.1,602.6C790.3,602.3 776.4,615.8 776.2,631.7C775.9,647.7 789.2,661.2 805.3,661.4C821.6,661.7 834.7,649 834.9,632.6Z" style="fill:rgb(40,40,40);fill-rule:nonzero;"/>
    </g>
</svg>
