<?xml version="1.0" encoding="UTF-8"?>
<svg width="68px" height="68px" viewBox="0 0 68 68" version="1.1" xmlns="http://www.w3.org/2000/svg" xmlns:xlink="http://www.w3.org/1999/xlink">
    <!-- Generator: Sketch 50.2 (55047) - http://www.bohemiancoding.com/sketch -->
    <title>4F</title>
    <desc>Created with Sketch.</desc>
    <defs></defs>
    <g id="4F" stroke="none" stroke-width="1" fill="none" fill-rule="evenodd">
        <rect id="Rectangle-2-Copy-4" fill="#CB351A" x="24" y="24" width="20" height="20" rx="10"></rect>
        <rect id="Rectangle-23" fill="#711D0F" x="32" y="6" width="4" height="14" rx="2"></rect>
        <rect id="Rectangle-23-Copy" fill="#E8624A" x="32" y="48" width="4" height="14" rx="2"></rect>
        <rect id="Rectangle-23" fill="#F3B1A5" transform="translate(55.000000, 34.000000) rotate(-270.000000) translate(-55.000000, -34.000000) " x="53" y="27" width="4" height="14" rx="2"></rect>
        <rect id="Rectangle-23-Copy" fill="#CB351A" transform="translate(13.000000, 34.000000) rotate(-270.000000) translate(-13.000000, -34.000000) " x="11" y="27" width="4" height="14" rx="2"></rect>
        <rect id="Rectangle-23" fill="#EF856E" transform="translate(48.849242, 48.849242) rotate(-225.000000) translate(-48.849242, -48.849242) " x="46.8492424" y="41.8492424" width="4" height="14" rx="2"></rect>
        <rect id="Rectangle-23-Copy" fill="#9E2915" transform="translate(19.150758, 19.150758) rotate(-225.000000) translate(-19.150758, -19.150758) " x="17.1507576" y="12.1507576" width="4" height="14" rx="2"></rect>
        <rect id="Rectangle-23" fill="#E24124" transform="translate(19.150758, 48.849242) rotate(-135.000000) translate(-19.150758, -48.849242) " x="17.1507576" y="41.8492424" width="4" height="14" rx="2"></rect>
        <rect id="Rectangle-23-Copy" fill="#FFDDD7" transform="translate(48.849242, 19.150758) rotate(-135.000000) translate(-48.849242, -19.150758) " x="46.8492424" y="12.1507576" width="4" height="14" rx="2"></rect>
    </g>
</svg>