<?xml version="1.0" encoding="utf-8"?>
<!-- Generator: Adobe Illustrator 19.0.0, SVG Export Plug-In . SVG Version: 6.00 Build 0)  -->
<svg version="1.1" id="Layer_1" xmlns="http://www.w3.org/2000/svg" xmlns:xlink="http://www.w3.org/1999/xlink" x="0px" y="0px"
	 viewBox="0 -296 1024 1320" style="enable-background:new 0 -296 1024 1320;" xml:space="preserve">
<style type="text/css">
	.st0{fill:#77613A;}
</style>
<g>
	<path id="XMLID_3_" class="st0" d="M435.5-51.5c-2.2,213.1-4,426.2-5.2,639.2c-0.2,32,11.6,59.5,44.1,81.7
		c1.9-204.6,3.7-404.8,5.6-610c51.3,34.3,75.2,75.6,74.6,130.5c-0.3,24.7-0.4,49.4-0.6,74.1c-1.1,127.6-2.5,255.2-3.1,382.8
		c-0.2,42.6,13.4,66.9,44.6,84.6l4.2-414.9c52.3,36.7,69.9,67.9,70,122.4c0,79.3-1.2,158.5-1.7,237.8l-1,150.1
		c-89.9-40.9-176.3-76.3-258.6-119.5c-40.5-21.3-58.8-65.2-59-112.6c-0.1-58.5,1.3-117.2,1.7-175.9c1.4-208.2,3-415.3,4.5-621.3
		C407.5-181.5,436.5-125.1,435.5-51.5z"/>
	<path id="XMLID_2_" class="st0" d="M325.6,53.9c0.2,134.9-1.2,269.8-2.1,404.7c-0.4,39.3-1.2,78.7-2.2,121.3
		c-52.3-44.6-96.1-58.9-118.4-35.6c-11.8,12.4-12.5,35.5-19.8,59.3c-13.3,3.2-24.8-8.5-38.8-27.7c-23.1-32-16.9-65.9-17.1-99.8
		c-0.3-29.9,1.4-59.8,2.2-89.7l8.7-2.3l26.1,38.9c16.8-10.7,33.1-23.7,51.4-32.2c19.2-9,40.4-14,60.7-20.7
		c-35.9-72-38.7-84.3-38.7-159.3c-0.1-92.3-0.5-184.6-0.8-276.3C288.8-51.9,325.5-5.8,325.6,53.9z"/>
	<path id="XMLID_1_" class="st0" d="M808.6,759.6l11.1-1.3l77.8,172.3c-52.7-23.2-97.3-41.2-140.2-62.4
		c-27.1-12.2-44.4-39.4-44.1-69.1c-1.9-77.7-3.9-155.1-6-240.2c43.6,28.3,66.1,58.3,66.3,102.5c0.1,44.3-0.9,88.4,0.3,132.6
		c0.6,26.3,7.7,50.6,46.4,63.6L808.6,759.6z"/>
</g>
</svg>
