<svg height="512" viewBox="0 0 58 58" width="512" xmlns="http://www.w3.org/2000/svg"><g id="047---Star-Anise" fill="none"><path id="Shape" d="m34.7 46.64c.1308998 4.5041887-2.0108112 8.7725811-5.7 11.36-3.6906665-2.5978461-5.8256335-6.8790561-5.68-11.39.0412101-2.7778915.5343248-5.5305526 1.46-8.15 0-.1-.18.93 1.27-6.46l4.64.64c1.0596166 1.8436609 1.9370946 3.7861696 2.62 5.8.9080836 2.63907 1.3776365 5.4090945 1.39 8.2z" fill="#a56a43"/><path id="Shape" d="m27.1 46c0-2.76 2-6 2-6s2 3.23 2 6-.87 5-2 5-1.98-2.23-2-5z" fill="#fac176"/><path id="Shape" d="m14.55 34.37c-.9193681.5609878-1.7981973 1.1858588-2.63 1.87-3.56663041 2.763448-5.49326802 7.1435382-5.12 11.64 4.3673103 1.1838481 9.0372913.102695 12.44-2.88 3.7602508-3.3258476 6.6042627-7.5608774 8.26-12.3l-1.5-3.7z" fill="#805333"/><path id="Shape" d="m14.86 38.65c2.09-1.81 5.84-2.43 5.84-2.43s-1.13 3.64-3.21 5.45-4.36 2.61-5.08 1.78.37-2.98 2.45-4.8z" fill="#fac176"/><path id="Shape" d="m25.41 30.76c-4.2996362 2.4280147-9.1425192 3.7316033-14.08 3.79-4.52372328.0638883-8.77826675-2.1441184-11.33-5.88 2.67890499-3.6484597 7.00901728-5.7102391 11.53-5.49 2.9.05 3.82.4 14.47 2.82z" fill="#a56a43"/><path id="Shape" d="m12 27c2.76 0 6 2 6 2s-3.24 2-6 2-5-.89-5-2 2.24-2 5-2z" fill="#fac176"/><path id="Shape" d="m33.68 18.16c.6588068-2.2067388.9956133-4.497023 1-6.8.1390704-4.50125001-1.9955577-8.77050633-5.68-11.36-3.697413 2.58590186-5.8438749 6.86003006-5.71 11.37.1430723 4.9397362 1.5513145 9.7601251 4.09 14l4.62 1.63z" fill="#a56a43"/><path id="Shape" d="m30.43 25.27c.7936717-2.491994 1.8848779-4.8792174 3.25-7.11 1.1915751-1.9344615 2.6453936-3.6945242 4.32-5.23 3.2330973-3.14222378 7.8197598-4.46609286 12.23-3.53.5935248 4.4738705-1.1100329 8.9452395-4.53 11.89-2.26 2.06-2.41 2-12.7 7.71z" fill="#805333"/><path id="Shape" d="m32.65 27.39c4.1846266-2.5313431 8.9348024-3.9783937 13.82-4.21 4.5209827-.2202391 8.851095 1.8415403 11.53 5.49-2.5517332 3.7358816-6.8062767 5.9438883-11.33 5.88-2.62.05-2.67-.08-15.67-2.55z" fill="#a56a43"/><path id="Shape" d="m51.2 47.88c-4.3673103 1.1838481-9.0372913.102695-12.44-2.88-2.1650287-1.8637667-4.0183863-4.0614639-5.49-6.51-.6829054-2.0138304-1.5603834-3.9563391-2.62-5.8l-.94-.13 3-2.1c4.8647412.7954811 9.4517493 2.800148 13.34 5.83 3.5622944 2.7468908 5.4988933 7.1051785 5.15 11.59z" fill="#805333"/><path id="Shape" d="m24.26 18.07c-1.1640363-1.8961181-2.580326-3.6252699-4.21-5.14-3.2440042-3.15869539-7.8538129-4.48382769-12.28-3.53-.59352483 4.4738705 1.11003291 8.9452395 4.53 11.89 3.6953052 3.1934499 8.1293504 5.4139097 12.9 6.46l3.8-1.75c-4.8-8-4.74-7.83-4.74-7.93z" fill="#805333"/><circle id="Oval" cx="29" cy="29" fill="#603e26" r="4"/><g fill="#fac176"><path id="Shape" d="m31 12c0 2.76-2 6-2 6s-2-3.24-2-6 .9-5 2-5 2 2.24 2 5z"/><path id="Shape" d="m42.83 18.92c-2 1.87-5.76 2.61-5.76 2.61s1-3.67 3-5.55 4.28-2.74 5-1.93-.21 2.95-2.24 4.87z"/><path id="Shape" d="m46 31c-2.77 0-6-2-6-2s3.24-2 6-2 5 .91 5 2-2.24 2.05-5 2z"/><path id="Shape" d="m40.56 41.62c-2.09-1.8-3.23-5.43-3.23-5.43s3.75.6 5.84 2.41 3.2 3.94 2.48 4.78-3 .05-5.09-1.76z"/><path id="Shape" d="m18 15.91c2 1.89 3 5.56 3 5.56s-3.73-.76-5.74-2.65-3-4.07-2.28-4.88 3.02.06 5.02 1.97z"/></g></g></svg>