<?xml version="1.0" encoding="utf-8"?>
<!-- Generator: Adobe Illustrator 19.0.0, SVG Export Plug-In . SVG Version: 6.00 Build 0)  -->
<svg version="1.1" id="Layer_1" xmlns="http://www.w3.org/2000/svg" xmlns:xlink="http://www.w3.org/1999/xlink" x="0px" y="0px"
	 viewBox="0 339.4 1024 346.6" style="enable-background:new 0 339.4 1024 346.6;" xml:space="preserve">
<style type="text/css">
	.st0{fill:#2D161B;}
</style>
<g>
	<path class="st0" d="M103.8,627.7l-29.4,57.9h-64l172.9-345.9l115.6,230.9H234L183.3,469l-51.1,101.6L103.8,627.7z M356.3,685.6
		h-64.5l-28.5-57.5h64L356.3,685.6z"/>
	<path class="st0" d="M610.6,588.8l57.5,19c-7.8,11.8-17.1,22.6-27.7,32c-10.4,9.6-21.8,17.8-34.2,24.7c-12.3,7-25.6,12.3-39.3,15.6
		c-14.1,3.9-28.6,5.7-43.2,5.6c-48,0-88.2-17.3-121.9-51.1s-51.1-73.9-51.1-121.9c0-47.6,16.9-88.2,51.1-121.9
		c33.3-34.1,73.9-51.1,121.9-51.1c23.2-0.2,46.1,4.4,67.4,13.4c20.7,9,39.4,21.7,55.4,37.6l-41.4,40.7
		c-44.7-45-117.4-45.3-162.4-0.6c-21.8,21.6-34,51.1-33.9,81.9c-0.7,62.8,49.5,114.3,112.3,115c0.9,0,1.8,0,2.7,0
		c16.5,0.1,32.9-3.3,48-9.9C586.5,610.8,599.7,601,610.6,588.8z M523.7,484.1h144.4l-57.5,57.5h-86.9L523.7,484.1L523.7,484.1z"/>
	<path id="XMLID_1_" class="st0" d="M983.4,512.7c20.3,19.5,30.2,43.7,30.2,72.2c0.1,26.6-10.5,52.2-29.4,70.9
		c-9.3,9.4-20.3,16.9-32.4,22c-12.3,5.2-25.5,7.9-38.9,7.8H783.2v-57.9h129.7c5.6,0.1,11.2-0.9,16.4-3c5.5-2,10.4-5.2,14.3-9.5
		c3.9-4,7-8.7,9.1-13.8c4.6-10.5,4.6-22.4,0-32.9c-4.3-10.3-12.3-18.7-22.5-23.4c-5.5-2.2-11.4-3.4-17.3-3.4H725.6v-57.5h187.2
		c11.5-0.2,22.5-4.9,30.7-13c3.9-4,7-8.7,9.1-13.8c2.3-5.3,3.4-11.1,3.5-16.9c-0.1-5.6-1.2-11.2-3.5-16.4c-2.1-5.2-5.2-9.9-9.1-13.8
		c-3.9-4.3-8.8-7.5-14.3-9.5c-5.2-2.1-10.8-3.1-16.4-3H783.2l-57.5-58h187.2c26.8-0.1,52.6,10.6,71.3,29.8
		c39.3,39.4,39.2,103.2-0.2,142.5C983.8,512.2,983.6,512.4,983.4,512.7L983.4,512.7z"/>
</g>
</svg>
