<?xml version="1.0" encoding="utf-8"?>
<!-- Generator: Adobe Illustrator 19.0.0, SVG Export Plug-In . SVG Version: 6.00 Build 0)  -->
<svg version="1.1" id="Capa_1" xmlns="http://www.w3.org/2000/svg" xmlns:xlink="http://www.w3.org/1999/xlink" x="0px" y="0px"
	 viewBox="-223 25 512 512" style="enable-background:new -223 25 512 512;" xml:space="preserve">
<style type="text/css">
	.st0{fill:#CC571D;}
	.st1{fill:#DD6B2A;}
	.st2{fill:#FFB93E;}
	.st3{fill:#B75B1D;}
	.st4{fill:#D7823F;}
</style>
<g>
	<path class="st0" d="M-73.3,357.8c0,28.1-19.6,52.4-47.1,58.4c-4.1,0.9-8.4,1.4-12.6,1.4c-11.6,0-23.1-3.4-32.8-9.8l39.6-91.6
		l7.1-16.3C-92.3,306.2-73.3,330.2-73.3,357.8z"/>
	<path class="st0" d="M19.9,250.8c-26.7,26.6-69.9,26.6-96.6-0.1c-5.4-5.4-9.9-11.8-13.2-18.7V232l37.8-87.4l3-7h0.1
		c35.9-11.5,74.3,8.4,85.7,44.2C44.5,206.1,38,232.8,19.9,250.8z"/>
</g>
<g>
	<path class="st1" d="M-95.9,368c0.1,19.1-9.1,37-24.6,48.2c-4.1,0.9-8.4,1.4-12.6,1.4c-11.6,0-23.1-3.4-32.8-9.8l39.6-91.6
		C-107.5,326.6-95.8,346.5-95.9,368z"/>
	<path class="st1" d="M-2.6,261c-2.9,2.9-6,5.5-9.4,7.9c-31.4,7.7-63.9-7.6-77.9-36.8V232l37.8-87.4c18.5-0.5,36.4,6.7,49.5,19.9
		c26.9,26.3,27.9,68.9,1.7,95.9C-1.3,260.7-1.7,261.1-2.6,261z"/>
</g>
<path d="M-133.1,426.1c-13.3,0-26.4-3.9-37.5-11.2c-3.4-2.3-4.8-6.7-3.1-10.5l46.7-107.9c1.6-3.8,5.8-5.9,9.8-4.9
	c36.7,8.7,59.3,45.5,50.5,82.2C-74,404.4-101.5,426.1-133.1,426.1z M-155,404.1c25.5,12.1,56.1,1.2,68.2-24.3s1.2-56.1-24.3-68.2
	c-1.1-0.5-2.1-1-3.2-1.4L-155,404.1z"/>
<path d="M-28.3,279.4c-29.6,0-56.5-17-69.3-43.7c-0.5-1.1-0.8-2.4-0.8-3.7c0-1.2,0.2-2.4,0.7-3.5l40.8-94.4c1.1-2.5,3.3-4.3,5.9-4.9
	c40.5-12.5,83.5,10.2,96,50.7c12.5,40.5-10.2,83.5-50.7,96C-13,278.2-20.6,279.4-28.3,279.4L-28.3,279.4z M-80.5,231.7
	c10.6,18.9,30.5,30.6,52.2,30.6h0.1c15.8,0,31-6.3,42.1-17.5l0,0c23.3-23.3,23.3-61.1,0-84.4c-14.9-14.9-36.4-20.8-56.8-15.7
	L-80.5,231.7z"/>
<path class="st2" d="M152.6,154.2C101.3,102.8,35.8,76.8-23.5,78.4L-49,137.6c35.9-11.4,74.2,8.5,85.6,44.4
	c11.4,35.9-8.5,74.2-44.4,85.6c-32.4,10.3-67.4-4.9-82.1-35.5l-28.8,66.6l-0.5,1.1c32.1,7.7,51.8,39.9,44.2,71.9
	c-6.4,26.9-30.5,45.8-58.1,45.8c-11.6,0-23.1-3.4-32.8-9.8l-4.9,11.5l-36,83.4c-1.9,4.4,0.2,9.4,4.5,11.3c2.2,0.9,4.6,0.9,6.7,0
	L-33.7,444v67.4c0,9.4,7.7,17.1,17.1,17c0.9,0,1.9-0.1,2.8-0.2c8.4-1.7,14.4-9.2,14.2-17.8v-41.2c0.2,9.4,8.1,16.9,17.5,16.6
	c9.3-0.2,16.6-7.8,16.6-17.1v-54.3l85.3-36.9v57c0,9.4,7.7,17.1,17.1,17c0.9,0,1.9-0.1,2.8-0.2c8.4-1.7,14.4-9.2,14.2-17.8v-41.2
	c0.2,9.4,8.1,16.9,17.5,16.6c9.3-0.2,16.6-7.8,16.6-17.1v-43.8l40.4-17.5C230.1,271.3,204.1,205.7,152.6,154.2z M35.6,350.3
	c-10,10-26.2,10-36.2,0c-10-10-10-26.2,0-36.2c10-10,26.2-10,36.2,0C45.5,324.1,45.5,340.3,35.6,350.3z M151.3,295.4
	c-15,15-39.3,15-54.3,0s-15-39.3,0-54.3c15-15,39.3-15,54.3,0C166.3,256,166.3,280.3,151.3,295.4
	C151.3,295.3,151.3,295.3,151.3,295.4z"/>
<path d="M-16.7,537c-6.8,0-13.2-2.7-18-7.5c-4.9-4.8-7.5-11.3-7.6-18.1V457l-149.9,64.7c-4.3,1.8-9.2,1.8-13.5,0
	c-4.2-1.8-7.5-5.1-9.2-9.4c-1.7-4.3-1.6-8.9,0.1-13.1l41-94.9c1-2.3,3-4.1,5.4-4.8c2.4-0.7,5-0.3,7.2,1.1c8.3,5.5,17.9,8.4,27.9,8.4
	c0.1,0,0.1,0,0.2,0c23.8,0,44.3-16.2,49.8-39.3c6.6-27.4-10.4-55.1-37.9-61.7c-2.5-0.6-4.6-2.3-5.7-4.6c-1.1-2.3-1.1-5-0.1-7.3
	l0.5-1.1l28.7-66.4c1.3-3.1,4.3-5.1,7.7-5.2c3.7,0.2,6.4,1.8,7.9,4.8c12.8,26.6,43.6,40,71.8,31.1c31.3-9.9,48.8-43.5,38.8-74.9
	c-9.9-31.3-43.5-48.8-74.9-38.8c-3.2,1-6.7,0.1-8.9-2.4c-2.2-2.5-2.8-6-1.5-9.1l25.5-59.1c1.3-3,4.3-5.1,7.6-5.2
	c64.5-1.9,130.9,26.8,182.4,78.3c51.6,51.6,80.1,118.2,78.4,182.7c-0.1,3.3-2.1,6.3-5.1,7.6l-35.2,15.3V392c0,14-11,25.2-25,25.6
	c-3.1,0-6.3-0.4-9.2-1.4v17.5c0.4,12.5-8.5,23.7-21,26.2c-1.7,0.3-3.4,0.4-4.6,0.4c-14.1,0-25.6-11.5-25.6-25.6v-44l-68.3,29.5v48.7
	c0,14-11,25.2-25,25.6c-3.2,0-6.3-0.4-9.2-1.4v17.5c0.4,12.5-8.5,23.7-21,26.2C-13.8,536.9-15.4,536.9-16.7,537z M-33.7,435.5
	c1.6,0,3.3,0.5,4.7,1.4c2.4,1.6,3.8,4.3,3.8,7.1v67.4c0,2.3,0.9,4.4,2.5,6c1.6,1.6,3.8,2.5,6,2.5c0.6,0,1,0,1.4-0.1
	c4.1-0.8,7.2-4.7,7.1-9.2v-41.5c0-4.7,3.8-8.5,8.4-8.5c4.5,0.1,8.5,3.6,8.6,8.3c0.1,2.3,1,4.4,2.7,6c1.6,1.6,3.9,2.6,6.1,2.3
	c4.7-0.1,8.3-3.9,8.3-8.5v-54.3c0-3.4,2-6.5,5.2-7.8l85.3-36.9c2.6-1.1,5.7-0.9,8.1,0.7c2.4,1.6,3.8,4.3,3.8,7.1v57
	c0,4.7,3.8,8.5,8.6,8.5c0,0,0,0,0,0c0.5,0,1,0,1.4-0.1c4.1-0.8,7.2-4.7,7.1-9.2v-41.5c0-4.7,3.8-8.5,8.4-8.5c0,0,0.1,0,0.1,0
	c4.6,0,8.4,3.7,8.5,8.3c0.1,2.3,1,4.4,2.7,6c1.6,1.6,3.8,2.6,6.1,2.3c4.7-0.1,8.3-3.9,8.3-8.5v-43.8c0-3.4,2-6.5,5.1-7.8l35.3-15.3
	c-0.1-57.5-27.3-118.7-73.4-164.8C99.9,113.5,40.2,87-17.8,86.9l-16.9,39.2c35-2.9,68.5,18.5,79.5,53.3c12.8,40.3-9.6,83.5-50,96.3
	c-30.6,9.7-63.8-1.1-83.2-25.4l-19.1,44.3c30.8,12.4,48.8,45.9,40.9,79.2c-7.4,30.8-34.7,52.4-66.4,52.4c-0.1,0-0.2,0-0.2,0
	c-9.9,0-19.6-2.1-28.5-6.3L-199,506l161.8-69.8C-36,435.7-34.9,435.5-33.7,435.5z M17.5,366.3c-9.1,0-17.7-3.5-24.1-10
	c-13.3-13.3-13.3-35,0-48.2c13.3-13.3,34.9-13.3,48.2,0c13.3,13.3,13.3,35,0,48.2l0,0C35.1,362.8,26.6,366.3,17.5,366.3z
	 M17.5,315.2c-4.6,0-8.8,1.8-12.1,5c-6.6,6.6-6.6,17.5,0,24.1c6.7,6.7,17.5,6.6,24.1,0c6.6-6.6,6.6-17.5,0-24.1
	C26.3,316.9,22,315.2,17.5,315.2z M124.1,315.1c-12.5,0-24.3-4.9-33.2-13.7c-18.3-18.3-18.3-48,0-66.3c18.3-18.3,48.1-18.3,66.3,0
	c18.3,18.2,18.3,48,0.1,66.3c0,0-0.1,0.1-0.1,0.1C148.4,310.2,136.7,315.1,124.1,315.1z M124.1,238.4c-7.6,0-15.3,2.9-21.1,8.7
	c-11.6,11.6-11.6,30.6,0,42.2c11.3,11.3,30.9,11.3,42.2,0l0,0c0.2-0.2,0.4-0.3,0.5-0.5c11.1-11.2,11.1-30.1-0.5-41.7
	C139.4,241.3,131.8,238.4,124.1,238.4z"/>
<path class="st3" d="M271.5,312.2l-17.7,7.6l-25.3,10.9c1.6-59.4-24.4-125-75.9-176.5C101.3,102.8,35.8,76.8-23.5,78.4l11-25.4
	L-5,35.5c135.5-17.2,259.3,78.8,276.5,214.3C274.1,270.5,274.1,291.5,271.5,312.2z"/>
<path class="st4" d="M253.8,319.8l-25.3,10.9c1.6-59.4-24.4-125-75.9-176.5C101.3,102.8,35.8,76.8-23.5,78.4l11-25.4
	c136.1-11,255.3,90.4,266.4,226.5C254.9,292.9,254.9,306.4,253.8,319.8z"/>
<path d="M228.5,339.2c-4.7,0-8.5-3.8-8.5-8.5c0-0.1,0-0.2,0-0.2c1.6-59-25.8-122.7-73.4-170.2C98.4,112.1,36.3,85.4-23.3,87
	c-2.9,0.1-5.7-1.3-7.3-3.7c-1.6-2.4-1.9-5.5-0.8-8.2l18.5-42.9c1.2-2.8,3.8-4.7,6.8-5.1c140.2-17.8,268.3,81.5,286,221.7
	c2.7,21.4,2.7,43.1,0,64.5c-0.4,3-2.3,5.6-5.1,6.8l-43,18.5C230.8,339,229.7,339.2,228.5,339.2z M-10.5,70
	c60.2,2.2,121.2,30.2,169.2,78.2c46.5,44.7,74.4,105.2,78.3,169.6l26.6-11.5c14-131.2-81-248.9-212.2-262.8
	c-16.8-1.8-33.7-1.8-50.5,0L-10.5,70z"/>
<g>
	<path class="st0" d="M151.3,295.4c-15,15-39.3,15-54.3,0s-15-39.3,0-54.3c0.9-0.9,1.9-1.8,2.9-2.6c16.4-13.4,40.6-10.9,54,5.6
		C166.3,259.3,165.2,281.4,151.3,295.4z"/>
	<path class="st0" d="M35.6,350.3c-4.3,4.3-10,7-16.1,7.4c-7.4,0.5-14.8-2.2-20.1-7.4c-9.6-9.6-10-25-0.9-35.1
		c0.3-0.4,0.6-0.8,0.9-1.1c10-10,26.2-10,36.2,0C45.5,324.1,45.5,340.3,35.6,350.3L35.6,350.3z"/>
</g>
<g>
	<path class="st1" d="M125.7,303.9c-0.9,0.9-1.9,1.8-2.9,2.6c-9.7-0.3-18.9-4.3-25.8-11.2c-15-14.9-15-39.2-0.1-54.2
		c0,0,0.1-0.1,0.1-0.1c0.9-0.9,1.9-1.8,2.9-2.6c9.7,0.3,18.9,4.3,25.8,11.2C140.7,264.6,140.7,288.8,125.7,303.9
		C125.7,303.8,125.7,303.9,125.7,303.9z"/>
	<path class="st1" d="M19.4,357.7c-7.4,0.5-14.8-2.2-20.1-7.4c-9.6-9.6-10-25-0.9-35.1c7.4-0.5,14.8,2.2,20.1,7.4
		C28.1,332.2,28.5,347.7,19.4,357.7z"/>
</g>
<path d="M124.1,315.1c-25.9,0-46.9-21-46.9-46.9c0-25.9,21-46.9,46.9-46.9c25.9,0,46.9,21,46.9,46.9c0,12.5-5,24.4-13.8,33.2
	C148.5,310.2,136.6,315.1,124.1,315.1z M124.1,238.4c-16.5,0-29.8,13.3-29.9,29.8c0,7.9,3.1,15.5,8.8,21.2
	c11.8,11.3,30.4,11.3,42.2,0l0,0c11.7-11.7,11.6-30.6,0-42.2C139.6,241.5,132,238.4,124.1,238.4z"/>
<path d="M-33.7,452.5c-4.7,0-8.5-3.8-8.5-8.5c0,0,0,0,0,0v-9.4c0-4.7-3.8-8.5-8.5-8.5c-4.7,0-8.5-3.8-8.5-8.5s3.8-8.5,8.5-8.5
	c14.1,0,25.6,11.5,25.6,25.6v9.4C-25.2,448.7-29,452.5-33.7,452.5L-33.7,452.5z"/>
<path id="SVGCleanerId_0" d="M0.4,477.5c-4.6,0.1-8.4-3.6-8.5-8.2c0-0.1,0-0.1,0-0.2v-9c0-4.7,3.8-8.5,8.5-8.5s8.5,3.8,8.5,8.5v8.5
	C9,473.5,5.2,477.4,0.4,477.5z"/>
<g>
	<path id="SVGCleanerId_0_1_" d="M0.4,477.5c-4.6,0.1-8.4-3.6-8.5-8.2c0-0.1,0-0.1,0-0.2v-9c0-4.7,3.8-8.5,8.5-8.5s8.5,3.8,8.5,8.5
		v8.5C9,473.5,5.2,477.4,0.4,477.5z"/>
</g>
<path d="M119.9,386.2c-4.7,0-8.5-3.8-8.5-8.5c0,0,0,0,0,0v-19.8c0-4.7-3.8-8.5-8.5-8.5c-4.7,0-8.5-3.8-8.5-8.5s3.8-8.5,8.5-8.5
	c14.1,0,25.6,11.5,25.6,25.6v19.8C128.4,382.3,124.6,386.2,119.9,386.2L119.9,386.2z"/>
<path id="SVGCleanerId_1" d="M154,400.7c-4.6,0.1-8.4-3.6-8.5-8.2c0-0.1,0-0.1,0-0.2v-9c0-4.7,3.8-8.5,8.5-8.5s8.5,3.8,8.5,8.5v8.5
	C162.5,396.7,158.8,400.6,154,400.7z"/>
<g>
	<path id="SVGCleanerId_1_1_" d="M154,400.7c-4.6,0.1-8.4-3.6-8.5-8.2c0-0.1,0-0.1,0-0.2v-9c0-4.7,3.8-8.5,8.5-8.5s8.5,3.8,8.5,8.5
		v8.5C162.5,396.7,158.8,400.6,154,400.7z"/>
</g>
<path d="M17.5,366.3c-18.8,0-34.1-15.3-34.1-34.1c0-18.8,15.3-34.1,34.1-34.1c18.8,0,34.1,15.3,34.1,34.1c0,9-3.6,17.7-10,24.1
	C35.2,362.8,26.5,366.3,17.5,366.3z M17.5,315.2c-9.4,0-17,7.6-17,17.1c0,9.4,7.6,17,17.1,17c9.4,0,17-7.6,17-17.1
	c0-4.5-1.8-8.9-5-12C26.3,317,22,315.2,17.5,315.2z"/>
<path d="M188.1,356.7c-4.7,0-8.5-3.8-8.5-8.5c0,0,0,0,0,0v-10.5c0-4.7,3.8-8.5,8.5-8.5s8.5,3.8,8.5,8.5v10.5
	C196.7,352.9,192.8,356.7,188.1,356.7L188.1,356.7z"/>
</svg>
