<?xml version="1.0" encoding="utf-8"?>
<!-- Generator: Adobe Illustrator 19.0.0, SVG Export Plug-In . SVG Version: 6.00 Build 0)  -->
<svg version="1.1" id="Capa_1" xmlns="http://www.w3.org/2000/svg" xmlns:xlink="http://www.w3.org/1999/xlink" x="0px" y="0px"
	 viewBox="-257 58.1 444.9 444.9" style="enable-background:new -257 58.1 444.9 444.9;" xml:space="preserve">
<style type="text/css">
	.st0{fill:#17A695;}
</style>
<g id="XMLID_476_">
	<path id="XMLID_503_" class="st0" d="M-133.5,350.4L35.2,181.7L-83.9,62.6c-5.8-5.9-15.3-5.9-21.2,0l-15.4,15.3
		c-4.4,4.4-5.7,11.1-3.1,16.8l4,9l-8.4-4.1c-5.7-2.8-12.6-1.6-17.1,2.9l-48.8,48.8c-5.1,5.1-5.9,13-1.9,19l32,47.7l-47.3-32.2
		c-5.9-4-13.9-3.3-19,1.8l-22.5,22.5c-5.9,5.8-5.9,15.3,0,21.2L-133.5,350.4z"/>
	<path id="XMLID_1199_" class="st0" d="M-111.4,372.5l34.5,34.5c5.8,5.9,15.3,5.9,21.2,0l32.7-32.7c6.3-6.3,15-9.4,23.9-8.4
		c8.9,0.9,16.7,5.8,21.5,13.3c61.2,96.1,70.2,105.1,73.1,108c21.1,21.1,55.5,21.1,76.6,0s21.1-55.5,0-76.6
		c-3-2.9-11.9-11.9-108-73.1c-7.6-4.8-12.4-12.6-13.4-21.5c-1-8.8,2.1-17.5,8.4-23.8l32.7-32.7c2.8-2.8,4.4-6.6,4.4-10.6
		s-1.6-7.8-4.4-10.6l-34.5-34.5L-111.4,372.5z M117.8,433c8.3-8.3,21.7-8.3,30,0s8.3,21.7,0,30s-21.7,8.3-30,0
		C109.6,454.8,109.6,441.3,117.8,433z"/>
</g>
</svg>
