<?xml version="1.0" encoding="utf-8"?>
<!-- Generator: Adobe Illustrator 19.0.0, SVG Export Plug-In . SVG Version: 6.00 Build 0)  -->
<svg version="1.1" id="Capa_1" xmlns="http://www.w3.org/2000/svg" xmlns:xlink="http://www.w3.org/1999/xlink" x="0px" y="0px"
	 viewBox="-223 25 512 512" style="enable-background:new -223 25 512 512;" xml:space="preserve">
<style type="text/css">
	.st0{fill:#B75B1D;}
	.st1{fill:#D7823F;}
	.st2{fill:#F9AC30;}
	.st3{fill:#FFB93E;}
	.st4{fill:#DD6B2A;}
</style>
<path class="st0" d="M280.5,281c0,136.7-110.7,247.4-247.4,247.5c0,0-0.1,0-0.1,0c-5.7,0-11.4-0.2-17.1-0.7
	c-136.3-9.4-239.2-127.5-229.8-263.7c8.5-123.2,106.6-221.3,229.8-229.8c5.6-0.5,11.3-0.7,17.1-0.7
	C169.7,33.5,280.4,144.3,280.5,281C280.5,280.9,280.5,281,280.5,281z"/>
<path class="st1" d="M246.3,281c0.1,130-100.7,237.9-230.4,246.8c-136.3-9.4-239.2-127.5-229.8-263.7
	c8.5-123.2,106.6-221.3,229.8-229.8C145.7,43.1,246.4,151,246.3,281z"/>
<path d="M33,537c-141.4,0-256-114.6-256-256S-108.4,25,33,25s256,114.6,256,256C288.8,422.3,174.3,536.8,33,537z M33,42.1
	c-132,0-238.9,107-238.9,238.9S-99,519.9,33,519.9S271.9,413,271.9,281C271.8,149.1,164.9,42.2,33,42.1z"/>
<path class="st2" d="M246.3,281c0,87.7-53.8,166.5-135.4,198.5c-24.8,9.9-51.2,14.9-77.9,14.8c-117.8,0-213.3-95.4-213.3-213.2
	c0-74,38.3-142.7,101.3-181.6c33.6-20.9,72.4-32,112-31.9C150.8,67.8,246.2,163.2,246.3,281z"/>
<path class="st3" d="M212.2,298.1c0,73.9-38.3,142.6-101.3,181.4c-24.8,9.9-51.2,14.9-77.9,14.8c-117.8,0-213.3-95.4-213.3-213.2
	c0-74,38.3-142.7,101.3-181.6c24.8-9.9,51.2-14.9,77.9-14.8C116.6,84.8,212.1,180.3,212.2,298.1z"/>
<path d="M33,502.9c-122.5,0-221.9-99.3-221.9-221.9S-89.5,59.1,33,59.1S254.9,158.5,254.9,281C254.7,403.5,155.5,502.7,33,502.9z
	 M33,76.2c-113.1,0-204.8,91.7-204.8,204.8S-80.1,485.8,33,485.8S237.8,394.1,237.8,281C237.7,167.9,146.1,76.3,33,76.2z"/>
<path id="SVGCleanerId_0" d="M33,537c-4.7,0-8.5-3.8-8.5-8.5c0,0,0,0,0,0V33.5c0-4.7,3.8-8.5,8.5-8.5c4.7,0,8.5,3.8,8.5,8.5v494.9
	C41.5,533.2,37.7,537,33,537L33,537z"/>
<g>
	<path id="SVGCleanerId_0_1_" d="M33,537c-4.7,0-8.5-3.8-8.5-8.5c0,0,0,0,0,0V33.5c0-4.7,3.8-8.5,8.5-8.5c4.7,0,8.5,3.8,8.5,8.5
		v494.9C41.5,533.2,37.7,537,33,537L33,537z"/>
</g>
<path d="M247.3,413.3c-1.5,0-3-0.4-4.3-1.1l-428.6-247.5c-4.1-2.4-5.5-7.6-3.1-11.7c2.4-4.1,7.6-5.5,11.7-3.1l428.6,247.5
	c4.1,2.4,5.5,7.6,3.1,11.7C253.2,411.6,250.4,413.3,247.3,413.3z"/>
<path d="M-181.3,413.3c-4.7,0-8.5-3.8-8.5-8.5c0-3.1,1.6-5.9,4.3-7.4L243,149.9c4.1-2.4,9.3-1,11.7,3.1c2.4,4.1,1,9.3-3.1,11.7h0
	L-177,412.1C-178.3,412.9-179.8,413.3-181.3,413.3z"/>
<path d="M-9.7,118.9c-1.1,0-2.2-0.2-3.2-0.7c-4.3-1.7-6.5-6.5-4.8-10.9c0.9-2.2,2.6-4,4.8-4.8c3.2-1.3,6.8-0.6,9.3,1.8
	c3.3,3.3,3.4,8.7,0.1,12.1C-5.2,118-7.4,118.9-9.7,118.9z"/>
<path d="M-95,170.1c-4.7,0-8.6-3.9-8.5-8.6c0-2.2,0.9-4.4,2.5-6c0.8-0.8,1.8-1.4,2.8-1.8c3.2-1.3,6.8-0.6,9.3,1.8
	c3.3,3.3,3.4,8.7,0.1,12.1C-90.5,169.2-92.7,170.1-95,170.1z"/>
<path d="M-129.1,238.3c-4.7,0-8.6-3.9-8.5-8.6c0-2.2,0.9-4.4,2.5-6c3.4-3.2,8.7-3.2,12.1,0c3.3,3.4,3.3,8.8,0,12.1
	c-0.4,0.3-0.9,0.7-1.3,1c-0.5,0.3-1,0.6-1.5,0.8c-0.5,0.3-1.1,0.4-1.6,0.5C-128.1,238.3-128.6,238.3-129.1,238.3z"/>
<path d="M-60.9,289.5c-0.6,0-1.1-0.1-1.7-0.2c-0.5-0.1-1.1-0.3-1.5-0.5c-0.5-0.2-1.1-0.4-1.5-0.8c-0.4-0.3-0.9-0.7-1.3-1
	c-3.3-3.3-3.4-8.7-0.1-12c2.4-2.5,6.2-3.2,9.4-1.9c1,0.4,2,1,2.8,1.8c3.3,3.3,3.4,8.7,0.1,12.1C-56.4,288.6-58.6,289.5-60.9,289.5z"
	/>
<path d="M118.3,281c-3.5,0.1-6.6-2-7.9-5.3c-0.4-1-0.7-2.1-0.7-3.2c0-4.7,3.8-8.6,8.5-8.6c2.3,0,4.5,0.9,6.1,2.5
	c0.3,0.4,0.7,0.9,1,1.4c0.3,0.4,0.6,0.9,0.8,1.5c0.2,0.5,0.4,1,0.5,1.5c0.1,0.6,0.2,1.1,0.2,1.7c0,1.1-0.2,2.2-0.7,3.2
	c-0.4,1-1,2-1.8,2.8C122.8,280.1,120.6,281,118.3,281z"/>
<path d="M84.2,349.3c-0.6,0-1.1-0.1-1.7-0.2c-0.5-0.1-1-0.3-1.5-0.5c-0.5-0.2-1.1-0.4-1.5-0.8c-0.4-0.3-0.9-0.7-1.3-1
	c-1.6-1.6-2.4-3.8-2.5-6.1c0-0.6,0.1-1.1,0.2-1.7c0.1-0.5,0.3-1,0.5-1.5c0.2-0.5,0.4-1,0.8-1.5c0.3-0.5,0.7-0.9,1-1.4
	c3.4-3.2,8.7-3.2,12.1,0c0.3,0.4,0.7,0.9,1,1.4c0.3,0.4,0.6,0.9,0.8,1.5c0.2,0.5,0.4,1,0.5,1.5c0.1,0.6,0.2,1.1,0.2,1.7
	c0,4.7-3.7,8.5-8.4,8.5C84.3,349.3,84.3,349.3,84.2,349.3z"/>
<path d="M152.5,400.5c-2.3,0-4.4-0.9-6.1-2.5c-0.8-0.8-1.4-1.8-1.8-2.8c-0.5-1-0.7-2.1-0.7-3.2c0-0.6,0.1-1.1,0.2-1.7
	c0.1-0.5,0.3-1,0.5-1.5c0.2-0.5,0.4-1.1,0.8-1.5c0.3-0.4,0.7-0.9,1-1.3c2.1-2,5-2.8,7.8-2.3c0.5,0.1,1,0.3,1.5,0.5
	c0.5,0.2,1.1,0.4,1.5,0.8c0.4,0.3,0.9,0.7,1.3,1c1.6,1.6,2.4,3.8,2.5,6.1c0,1.1-0.2,2.2-0.7,3.2c-0.4,1-1,2-1.8,2.8
	c-0.4,0.4-0.8,0.7-1.3,1c-0.5,0.3-1,0.6-1.5,0.8c-0.5,0.2-1,0.4-1.5,0.5C153.6,400.4,153,400.5,152.5,400.5z"/>
<path d="M-1.1,349.3c-1.1,0-2.2-0.2-3.2-0.7c-1-0.4-2-1-2.8-1.8c-0.3-0.4-0.7-0.9-1-1.4c-0.3-0.4-0.6-0.9-0.8-1.5
	c-0.2-0.5-0.4-1-0.5-1.5c-0.1-0.6-0.2-1.1-0.2-1.7c0-1.1,0.2-2.2,0.7-3.2c1.8-4.4,6.8-6.4,11.2-4.6c1,0.4,1.9,1,2.7,1.8
	c1.6,1.6,2.4,3.8,2.5,6.1c0,0.6-0.1,1.1-0.2,1.7c-0.1,0.5-0.3,1.1-0.5,1.5c-0.2,0.5-0.4,1-0.8,1.5c-0.3,0.5-0.7,0.9-1,1.4
	C3.3,348.3,1.1,349.2-1.1,349.3z"/>
<path d="M-86.5,409c-1.1,0-2.2-0.2-3.2-0.7c-0.5-0.2-1.1-0.4-1.5-0.8c-0.4-0.3-0.9-0.7-1.3-1c-0.8-0.8-1.4-1.8-1.8-2.8
	c-0.4-1-0.7-2.1-0.7-3.2c0-2.3,0.9-4.4,2.5-6.1l1.3-1c0.5-0.3,1-0.6,1.5-0.8c2.1-0.9,4.4-0.9,6.5,0c1,0.4,2,1,2.8,1.8
	c3.3,3.4,3.3,8.8,0,12.1c-0.8,0.8-1.8,1.4-2.8,1.8C-84.2,408.8-85.3,409-86.5,409z"/>
<path d="M67.1,229.8c-4.7,0-8.5-3.7-8.5-8.4c0-0.1,0-0.1,0-0.2c0-1.1,0.2-2.2,0.7-3.2c0.4-1,1-2,1.8-2.8c3.4-3.2,8.7-3.2,12.1,0
	c0.8,0.8,1.4,1.8,1.8,2.8c0.4,1,0.7,2.1,0.7,3.2c0,4.7-3.7,8.5-8.4,8.5C67.2,229.8,67.2,229.8,67.1,229.8z"/>
<path d="M67.1,127.4c-2.3,0-4.4-0.9-6.1-2.5c-0.8-0.8-1.4-1.8-1.8-2.8c-0.9-2.1-0.9-4.4,0-6.5c0.4-1,1-2,1.8-2.8
	c3.4-3.2,8.7-3.2,12.1,0c0.8,0.8,1.4,1.8,1.8,2.8c0.9,2.1,0.9,4.4,0,6.5c-0.4,1-1,2-1.8,2.8C71.6,126.5,69.4,127.4,67.1,127.4z"/>
<g>
	<circle class="st4" cx="-26.7" cy="178.6" r="25.6"/>
	<circle class="st4" cx="-120.6" cy="306.6" r="25.6"/>
	<circle class="st4" cx="92.7" cy="426.1" r="25.6"/>
	<circle class="st4" cx="178.1" cy="281" r="25.6"/>
	<circle class="st4" cx="-26.7" cy="417.5" r="25.6"/>
	<circle class="st4" cx="126.9" cy="153" r="25.6"/>
</g>
<path d="M-26.7,212.7c-18.9,0-34.1-15.3-34.1-34.1s15.3-34.1,34.1-34.1s34.1,15.3,34.1,34.1C7.4,197.4-7.9,212.7-26.7,212.7z
	 M-26.7,161.5c-9.4,0-17.1,7.6-17.1,17.1c0,9.4,7.6,17.1,17.1,17.1s17.1-7.6,17.1-17.1C-9.7,169.2-17.3,161.5-26.7,161.5z"/>
<path d="M-120.6,340.7c-18.8,0-34.1-15.3-34.1-34.1s15.3-34.1,34.1-34.1s34.1,15.3,34.1,34.1C-86.5,325.4-101.8,340.7-120.6,340.7z
	 M-120.6,289.5c-9.4,0-17.1,7.6-17.1,17.1c0,9.4,7.6,17.1,17.1,17.1s17.1-7.6,17.1-17.1C-103.5,297.2-111.2,289.5-120.6,289.5z"/>
<path d="M92.7,460.2c-18.9,0-34.1-15.3-34.1-34.1s15.3-34.1,34.1-34.1s34.1,15.3,34.1,34.1C126.9,444.9,111.6,460.2,92.7,460.2z
	 M92.7,409c-9.4,0-17.1,7.6-17.1,17.1c0,9.4,7.6,17.1,17.1,17.1c9.4,0,17.1-7.6,17.1-17.1C109.8,416.6,102.2,409,92.7,409z"/>
<path d="M178.1,315.1c-18.9,0-34.1-15.3-34.1-34.1s15.3-34.1,34.1-34.1s34.1,15.3,34.1,34.1C212.2,299.8,196.9,315.1,178.1,315.1z
	 M178.1,263.9c-9.4,0-17.1,7.6-17.1,17.1c0,9.4,7.6,17.1,17.1,17.1c9.4,0,17.1-7.6,17.1-17.1C195.1,271.6,187.5,263.9,178.1,263.9z"
	/>
<path d="M-26.7,451.7c-18.9,0-34.1-15.3-34.1-34.1s15.3-34.1,34.1-34.1s34.1,15.3,34.1,34.1C7.4,436.4-7.9,451.6-26.7,451.7z
	 M-26.7,400.5c-9.4,0-17.1,7.6-17.1,17.1s7.6,17.1,17.1,17.1s17.1-7.6,17.1-17.1C-9.7,408.1-17.3,400.5-26.7,400.5z"/>
<path d="M126.9,187.1c-18.9,0-34.1-15.3-34.1-34.1s15.3-34.1,34.1-34.1c18.9,0,34.1,15.3,34.1,34.1
	C161,171.8,145.7,187.1,126.9,187.1z M126.9,135.9c-9.4,0-17.1,7.6-17.1,17.1c0,9.4,7.6,17.1,17.1,17.1c9.4,0,17.1-7.6,17.1-17.1
	C143.9,143.6,136.3,135.9,126.9,135.9z"/>
</svg>
