<?xml version="1.0" encoding="utf-8"?>
<!-- Generator: Adobe Illustrator 19.0.0, SVG Export Plug-In . SVG Version: 6.00 Build 0)  -->
<svg version="1.1" id="Capa_1" xmlns="http://www.w3.org/2000/svg" xmlns:xlink="http://www.w3.org/1999/xlink" x="0px" y="0px"
	 viewBox="-300 302.6 421.4 421.4" style="enable-background:new -300 302.6 421.4 421.4;" xml:space="preserve">
<style type="text/css">
	.st0{fill:#004F4F;}
</style>
<g>
	<g>
		<path class="st0" d="M66,318.3c0-8.7-7-15.7-15.7-15.7h-318.4c-3.3,0-6.3,1-8.8,2.7c-1.7,1.1-3.1,2.6-4.2,4.2
			c-1.7,2.5-2.7,5.5-2.7,8.8v21.1v51.3c0,3.3,1,6.3,2.7,8.8c1.1,1.7,2.6,3.1,4.2,4.2c2.5,1.7,5.5,2.7,8.8,2.7H50.3
			c8.7,0,15.7-7,15.7-15.7v-24.4h15.7v52.2l-187.6,34.2c-5.6,1-9.7,5.9-9.7,11.6v50.4h-12c-8.7,0-15.7,7-15.7,15.7v177.9
			c0,8.7,7,15.7,15.7,15.7H-80c8.7,0,15.7-7,15.7-15.7V530.4c0-8.7-7-15.7-15.7-15.7h-12v-40.6l187.5-34.2c5.6-1,9.7-5.9,9.7-11.6
			v-73.7c0-6.5-5.3-11.8-11.8-11.8H66v-24.2V318.3L66,318.3L66,318.3z M-76.9,352.9c15.2,0,15.2,23.5,0,23.5
			C-92,376.4-92,352.9-76.9,352.9z M44.8,317.3c-1.5,4.1-5,7.6-10.4,8.1c-4.7,0.4-9.2,1.3-13.7,2.5c-1.4,11-4.5,21.7-4.6,32.8
			c0,11-16.9,17.1-21.9,5.9c-11.5-25.6-21.6-31.3-48.3-31c-16.4,0.2-31.1-2.6-46.1-8.3c-6.8,0.9-13.7,1.6-20.3,1.4
			c-4.7,16,2.7,29.4-3.8,45.6c-3.6,8.9-16.1,12.5-21.5,2.8c-7-12.4-7.4-24.2-11.3-31.5c-0.7,5.2-4.5,9.9-11.2,9.9
			c-9.7,0-13.2-9.6-10.5-16.6c-2.4,0.4-4.9,0.9-7.8,1.6c-14.2,3.6-26.2,0-38-3.1v22c0,6.4-5.4,11.8-11.8,11.8s-11.8-5.4-11.8-11.8
			v-24.8c0-0.2,0.1-0.4,0.1-0.6c-6.7,0.3-13.8,2.2-21.6,6.8c-0.7,0.4-1.5,0.7-2.2,1v-23.5c0-2.2,1.8-3.9,3.9-3.9H50.3
			c2,0,3.5,1.5,3.8,3.3C51,317.5,47.9,317.4,44.8,317.3z"/>
	</g>
</g>
</svg>
